<?xml version="1.0" standalone="no"?><!DOCTYPE svg PUBLIC "-//W3C//DTD SVG 1.1//EN" "http://www.w3.org/Graphics/SVG/1.1/DTD/svg11.dtd"><svg t="1571387746048" class="icon" viewBox="0 0 1024 1024" version="1.1" xmlns="http://www.w3.org/2000/svg" p-id="11517" xmlns:xlink="http://www.w3.org/1999/xlink" width="200" height="200"><defs><style type="text/css"></style></defs><path d="M640.992 928.288 384.992 928.288C384.992 928.288 384.992 741.792 384.992 640.288 384.992 623.296 391.744 607.04 403.744 595.04 415.744 583.04 432.032 576.288 448.992 576.288 488.096 576.288 537.888 576.288 576.992 576.288 593.952 576.288 610.24 583.04 622.24 595.04 634.24 607.04 640.992 623.296 640.992 640.288 640.992 741.792 640.992 928.288 640.992 928.288ZM971.264 477.792 559.232 82.464C533.632 57.888 492.192 57.824 466.496 82.464L54.464 477.792C16.224 514.496 27.904 544.288 81.184 544.288L163.296 544.288 191.2 928.64C193.952 963.648 224.96 992.288 260.448 992.288L765.568 992.288C800.928 992.288 832.032 963.808 834.816 928.64L862.688 544.288 944.544 544.288C997.568 544.288 971.264 477.792 971.264 477.792Z" p-id="11518"></path></svg>